<svg xmlns="http://www.w3.org/2000/svg" width="339.99" height="110.01" viewBox="0 0 339.99 110.01"><title>logo-white</title><path d="M73.05,72.14c-1.74,2.81-3.4,5.66-5.22,8.43a160.12,160.12,0,0,1-24.2,28.77c-.88.83-1.35.9-2.29,0A164.55,164.55,0,0,1,23.58,89.69a147.1,147.1,0,0,1-10.8-16.16c-.8-1.38-1.44-2.83-2.26-4.19-.45-.75-.12-1.07.5-1.23,2.25-.62,4.43-1.44,6.71-2,.77-.17,1.08,0,1.36.57a129.57,129.57,0,0,0,15.79,23c1.61,1.91,3.13,3.75,4.67,5.65.4.5,1,1.32,1.47,1.84,1,1.23,1.52,1.21,2.57,0,2.63-3,5.24-6,7.78-9a138.59,138.59,0,0,0,11-15.26c1-1.65,2-3.35,2.92-5.08a1.17,1.17,0,0,1,1.82-.6c2,.9,4,1.73,6,2.59C74.51,70.39,73.48,71.39,73.05,72.14Z" transform="translate(0.01 0.02)" fill="#ea2929"/><path d="M42.93,91.12a.45.45,0,0,1-.63.09l-.09-.09c-1.84-2.5-3.08-5.1-4.59-7.61-1-1.68-1.93-3.41-3-5A3.07,3.07,0,0,1,34.23,76q1.1-6.41,2.15-12.81c.33-2,.3-2,2.36-2,2.74,0,5.49.05,8.23,0,1,0,1.51.27,1.66,1.27.32,2.21.71,4.41,1.09,6.61s.73,4.39,1.12,6.59a4,4,0,0,1-.42,3c-2.32,3.88-3.91,6.64-6.22,10.52C44,89.43,43.16,90.83,42.93,91.12Z" transform="translate(0.01 0.02)" fill="#ea2929"/><path d="M26.89,14.83c-.23-6.78,5.18-13,12-14.45a15.6,15.6,0,0,1,18.19,10A13.43,13.43,0,0,1,56,21.79c-3,5.3-7.19,9.58-11.44,13.86-.71.71-1.41,1.87-2.19,1.94s-1.46-1.16-2.16-1.85A76,76,0,0,1,29.9,23.85C28.1,21,26.67,18.16,26.89,14.83ZM42.24,6.5C35.51,6.5,31.4,13,34.46,18.81c1.86,3.52,4.55,6.41,7.25,9.32.54.58.83.32,1.22-.06a52.34,52.34,0,0,0,6.31-7.62,10.35,10.35,0,0,0,1.94-4.82,8.56,8.56,0,0,0-8-9.12A8,8,0,0,0,42.24,6.5Z" transform="translate(0.01 0.02)" fill="#fff"/><path d="M84.48,32.39a70.37,70.37,0,0,1-3.69,22c-1,2.85-2,5.66-3.12,8.45-.39.94-.74,1-1.58.47a34.88,34.88,0,0,0-6-3.2c-.78-.31-.58-.71-.32-1.29a75,75,0,0,0,4.71-15.06,40.66,40.66,0,0,0,1-8.86c0-.69-.19-1-.86-1.17-2.33-.46-4.65-1-7-1.38-3.11-.5-6.24-.9-9.36-1.33-.57-.07-.81-.16-.4-.76a35.33,35.33,0,0,0,4-6.82c.2-.49.5-.53,1.09-.47a140.34,140.34,0,0,1,20,4c1,.26,1.55.72,1.45,1.83S84.48,31.17,84.48,32.39Z" transform="translate(0.01 0.02)" fill="#fff"/><path d="M9.07,35.35c.08,5.54,1.38,10.48,2.79,15.39.64,2.26,1.57,4.44,2.37,6.66.2.58.31.9-.58,1.15-2.22.64-4.38,1.49-6.55,2.29-.59.2-.81.2-1.1-.48A64.39,64.39,0,0,1,2.07,48.25,70.82,70.82,0,0,1,0,30.14c.12-3,.24-3.1,3.18-3.7,3.44-.71,6.82-1.66,10.3-2.23,2.76-.46,5.52-.94,8.28-1.42a.65.65,0,0,1,.77.46,32.84,32.84,0,0,0,4.18,7c.3.39.21.65-.38.72-3,.34-6,.9-8.95,1.22-2.54.28-4.92,1.07-7.41,1.45C8.59,33.89,9.1,34.94,9.07,35.35Z" transform="translate(0.01 0.02)" fill="#fff"/><path d="M42.22,54.23a23.22,23.22,0,0,0-2.89,0c-1.13.14-1.31-.37-1.14-1.26a3.07,3.07,0,0,1,.07-.42c1.19-2.93.12-5.46-1.26-8s-1.45-2.06,1-3.64c3.65-2.32,7-1.41,10.16,1.09.48.38.38.74.13,1.22-.79,1.46-1.53,2.94-2.26,4.42-.66,1.31,0,2.64,0,4,0,.12.16.24.19.37.55,2.18.44,2.32-1.89,2.3H42.17Z" transform="translate(0.01 0.02)" fill="#fff"/><path d="M46,16.44A3.67,3.67,0,0,1,42.26,20h0a3.75,3.75,0,0,1-3.67-3.67,3.7,3.7,0,1,1,7.4.1h0Z" transform="translate(0.01 0.02)" fill="#fff"/><path d="M114,32.17h17.79a3.25,3.25,0,0,1,2.31.87A3,3,0,0,1,135,35.3a2.72,2.72,0,0,1-.93,2.15,3.32,3.32,0,0,1-2.31.82H116.88l.48-.9V47.72l-.42-.42h12.42a3.25,3.25,0,0,1,2.31.87,3,3,0,0,1,.93,2.26,2.72,2.72,0,0,1-.93,2.15,3.32,3.32,0,0,1-2.31.82H117.1l.26-.42V63.7l-.42-.48h14.81a3.12,3.12,0,0,1,2.31.93A3,3,0,0,1,135,66.3a2.78,2.78,0,0,1-.93,2.18,3.28,3.28,0,0,1-2.31.85H114a3.18,3.18,0,0,1-3.24-3.12V35.41a3.18,3.18,0,0,1,3.12-3.24Z" transform="translate(0.01 0.02)" fill="#fff"/><path d="M155.49,40.4c2.83,0,4.91.67,6.26,2a10.09,10.09,0,0,1,2.66,5.28l-.91-.47.43-.85a12.19,12.19,0,0,1,2-2.63,12,12,0,0,1,3.22-2.39,10.44,10.44,0,0,1,10,.66,8.42,8.42,0,0,1,2.74,4.38,23.54,23.54,0,0,1,.74,6.08V66.09a3.21,3.21,0,0,1-.9,2.31,3.08,3.08,0,0,1-2.29.93,3,3,0,0,1-2.28-.93,3.21,3.21,0,0,1-.9-2.31V52.5a10.57,10.57,0,0,0-.43-3.16,4.21,4.21,0,0,0-1.54-2.25,5.13,5.13,0,0,0-3.18-.85,6.6,6.6,0,0,0-3.45.85,5.39,5.39,0,0,0-2.16,2.25,7.06,7.06,0,0,0-.71,3.16V66.09a3.21,3.21,0,0,1-.9,2.31,3.08,3.08,0,0,1-2.29.93,3,3,0,0,1-2.28-.93,3.21,3.21,0,0,1-.9-2.31V52.5a11.25,11.25,0,0,0-.42-3.16,4.27,4.27,0,0,0-1.54-2.25,5.13,5.13,0,0,0-3.18-.85,6.63,6.63,0,0,0-3.46.85,5.48,5.48,0,0,0-2.15,2.25A7.06,7.06,0,0,0,147,52.5V66.09a3.16,3.16,0,0,1-.91,2.31,3.26,3.26,0,0,1-4.56,0,3.21,3.21,0,0,1-.9-2.31V44.17a3.21,3.21,0,0,1,.9-2.31,3.26,3.26,0,0,1,4.56,0,3.16,3.16,0,0,1,.91,2.31v2.28l-.8-.16a11.69,11.69,0,0,1,1.33-1.94,11.45,11.45,0,0,1,4.78-3.4A9.28,9.28,0,0,1,155.49,40.4Z" transform="translate(0.01 0.02)" fill="#fff"/><path d="M204.23,40.4a12.15,12.15,0,0,1,6.66,1.88,13.34,13.34,0,0,1,4.68,5.18,16.2,16.2,0,0,1,1.72,7.64,16.32,16.32,0,0,1-1.72,7.67A13.59,13.59,0,0,1,211,68a11.74,11.74,0,0,1-6.51,1.88,11.38,11.38,0,0,1-4-.69,12.72,12.72,0,0,1-3.27-1.75A10.53,10.53,0,0,1,195,65.27a3.44,3.44,0,0,1-.77-1.83l1.64-.69v14A3.19,3.19,0,0,1,195,79a3,3,0,0,1-2.28.93,3.1,3.1,0,0,1-3.19-3V44.17a3.21,3.21,0,0,1,.9-2.31,3.08,3.08,0,0,1,2.29-.93,3,3,0,0,1,2.28.93,3.21,3.21,0,0,1,.9,2.31v2.6l-.9-.48a3.06,3.06,0,0,1,.74-1.67,11.14,11.14,0,0,1,2-2,11.56,11.56,0,0,1,3-1.58A9.89,9.89,0,0,1,204.23,40.4Zm-.8,5.84a7.31,7.31,0,0,0-4.09,1.16,8,8,0,0,0-2.73,3.16,10,10,0,0,0-1,4.54,10.2,10.2,0,0,0,1,4.54,7.87,7.87,0,0,0,2.73,3.21,7.64,7.64,0,0,0,8.16,0,7.93,7.93,0,0,0,2.7-3.21,10.2,10.2,0,0,0,1-4.54,10,10,0,0,0-1-4.54,8.1,8.1,0,0,0-2.7-3.16A7.19,7.19,0,0,0,203.43,46.24Z" transform="translate(0.01 0.02)" fill="#fff"/><path d="M237.79,40.4A9,9,0,0,1,243.6,42a8.42,8.42,0,0,1,2.74,4.38,23.54,23.54,0,0,1,.74,6.08V66.09a3.21,3.21,0,0,1-.9,2.31,3.08,3.08,0,0,1-2.29.93,3,3,0,0,1-2.28-.93,3.21,3.21,0,0,1-.9-2.31V52.5a10.57,10.57,0,0,0-.43-3.16,4.21,4.21,0,0,0-1.54-2.25,5.13,5.13,0,0,0-3.18-.85,6.6,6.6,0,0,0-3.45.85A5.39,5.39,0,0,0,230,49.34a6.78,6.78,0,0,0-.72,3.16V66.09a3.21,3.21,0,0,1-.9,2.31,3.08,3.08,0,0,1-2.29.93,3,3,0,0,1-2.28-.93,3.21,3.21,0,0,1-.9-2.31V33.28a3.21,3.21,0,0,1,.9-2.31,3.3,3.3,0,0,1,4.57,0,3.21,3.21,0,0,1,.9,2.31V46.45l-.8-.16a11.69,11.69,0,0,1,1.33-1.94,11.88,11.88,0,0,1,2.07-1.94A11.08,11.08,0,0,1,234.59,41,9.21,9.21,0,0,1,237.79,40.4Z" transform="translate(0.01 0.02)" fill="#fff"/><path d="M256.74,37.48a4.23,4.23,0,0,1-2.55-.59,2.53,2.53,0,0,1-.74-2.07v-1a2.34,2.34,0,0,1,.82-2.09,4.55,4.55,0,0,1,2.53-.56,4.38,4.38,0,0,1,2.6.58,2.53,2.53,0,0,1,.74,2.07v1a2.38,2.38,0,0,1-.8,2.1A4.62,4.62,0,0,1,256.74,37.48ZM260,66.09a3.21,3.21,0,0,1-.9,2.31,3.27,3.27,0,0,1-4.57,0,3.21,3.21,0,0,1-.9-2.31V44.17a3.21,3.21,0,0,1,.9-2.31,3.27,3.27,0,0,1,4.57,0,3.21,3.21,0,0,1,.9,2.31Z" transform="translate(0.01 0.02)" fill="#fff"/><path d="M269.7,69.33a3,3,0,0,1-2.28-.93,3.16,3.16,0,0,1-.91-2.31V44.17a3.16,3.16,0,0,1,.91-2.31,3.26,3.26,0,0,1,4.56,0,3.21,3.21,0,0,1,.9,2.31v5l-.37-3.56A8.34,8.34,0,0,1,274,43.34a8.76,8.76,0,0,1,2.09-1.64,9.34,9.34,0,0,1,2.5-1,11.3,11.3,0,0,1,2.65-.32,4.09,4.09,0,0,1,2.69.9A2.69,2.69,0,0,1,285,43.42a3.14,3.14,0,0,1-.9,2.52,2.92,2.92,0,0,1-2,.77,4.48,4.48,0,0,1-1.84-.37,4.67,4.67,0,0,0-3.82.08,5.16,5.16,0,0,0-1.8,1.41,7.26,7.26,0,0,0-1.33,2.36,9.85,9.85,0,0,0-.51,3.32V66.09a3.21,3.21,0,0,1-.9,2.31A3,3,0,0,1,269.7,69.33Z" transform="translate(0.01 0.02)" fill="#fff"/><path d="M301.77,69.86A15.6,15.6,0,0,1,293.94,68a13.1,13.1,0,0,1-5.1-5.13,15,15,0,0,1-1.78-7.32A16.19,16.19,0,0,1,289,47.38a13.78,13.78,0,0,1,5.07-5.18,13.13,13.13,0,0,1,6.64-1.8,12.07,12.07,0,0,1,5.12,1.11,14.24,14.24,0,0,1,4.28,3.05A14.87,14.87,0,0,1,313.05,49a13.59,13.59,0,0,1,1.09,5.41,2.74,2.74,0,0,1-1,2.08,3.37,3.37,0,0,1-2.23.79H290.62L289,52h19.48l-1.13,1V51.65a5.07,5.07,0,0,0-1.09-2.76,7.15,7.15,0,0,0-5.55-2.65,10.12,10.12,0,0,0-3,.42,5.6,5.6,0,0,0-2.38,1.43,7,7,0,0,0-1.6,2.71,13.58,13.58,0,0,0-.58,4.3A9.37,9.37,0,0,0,294.34,60,8.14,8.14,0,0,0,301.45,64a12.24,12.24,0,0,0,3.13-.32,6.9,6.9,0,0,0,1.89-.77c.48-.3.91-.56,1.3-.77a4.1,4.1,0,0,1,1.81-.48,2.68,2.68,0,0,1,2.7,2.66h0A3.31,3.31,0,0,1,310.8,67a12.34,12.34,0,0,1-3.88,2A15.29,15.29,0,0,1,301.77,69.86Z" transform="translate(0.01 0.02)" fill="#fff"/><path d="M318.07,64.92a3,3,0,0,1-.48-1.91A2.57,2.57,0,0,1,319,61a3,3,0,0,1,1.81-.45,3,3,0,0,1,1.86,1A12.22,12.22,0,0,0,325.91,64a9.39,9.39,0,0,0,4.24.85,13.06,13.06,0,0,0,1.76-.24,3.45,3.45,0,0,0,1.67-.84,2.64,2.64,0,0,0,.72-2,2.36,2.36,0,0,0-.8-1.86,6.45,6.45,0,0,0-2.1-1.16c-.87-.32-1.83-.62-2.89-.91s-2.22-.67-3.37-1.06A14.15,14.15,0,0,1,322,55.13a7.1,7.1,0,0,1-2.34-2.47,7.6,7.6,0,0,1-.9-3.88,7,7,0,0,1,1.48-4.51A9.71,9.71,0,0,1,324,41.41a12.27,12.27,0,0,1,5-1,16,16,0,0,1,3.45.4A13.35,13.35,0,0,1,335.91,42a8.32,8.32,0,0,1,2.76,2.31,3.75,3.75,0,0,1,.69,1.91,2.27,2.27,0,0,1-1,2,2.52,2.52,0,0,1-1.85.55,2.87,2.87,0,0,1-1.76-.71,6.2,6.2,0,0,0-2.41-1.86,8.32,8.32,0,0,0-3.48-.69,8.41,8.41,0,0,0-1.73.19,3.42,3.42,0,0,0-1.62.79,2.48,2.48,0,0,0-.69,1.94,2.5,2.5,0,0,0,.8,1.94,6.07,6.07,0,0,0,2.15,1.16c.9.31,1.87.6,2.89.88s2.15.62,3.24,1a13.1,13.1,0,0,1,3,1.54,7.44,7.44,0,0,1,2.23,2.47,7.78,7.78,0,0,1,.85,3.85,7,7,0,0,1-1.59,4.61,10.12,10.12,0,0,1-4,2.9,12.84,12.84,0,0,1-4.89,1,18.84,18.84,0,0,1-6.27-1.09A10.89,10.89,0,0,1,318.07,64.92Z" transform="translate(0.01 0.02)" fill="#fff"/></svg>