<svg xmlns="http://www.w3.org/2000/svg" width="340" height="109.98" viewBox="0 0 340 109.98"><title>logo</title><path d="M73.05,72.1c-1.74,2.81-3.4,5.66-5.22,8.43a160.07,160.07,0,0,1-24.2,28.77c-.88.83-1.35.9-2.29,0A165.26,165.26,0,0,1,23.58,89.65a147.11,147.11,0,0,1-10.8-16.16c-.8-1.38-1.44-2.83-2.26-4.19-.45-.75-.12-1.07.5-1.23,2.25-.62,4.43-1.44,6.71-2,.77-.17,1.08,0,1.36.57a129.38,129.38,0,0,0,15.79,23c1.61,1.91,3.13,3.75,4.67,5.65.4.5,1,1.32,1.47,1.84,1,1.23,1.52,1.21,2.57,0,2.63-3,5.24-6,7.78-9a138.73,138.73,0,0,0,11-15.26c1-1.65,2-3.35,2.92-5.08.45-.87,1-1,1.82-.6,2,.9,4,1.73,6,2.59C74.51,70.35,73.48,71.35,73.05,72.1Z" transform="translate(0 0.04)" fill="#fb8cc2"/><path d="M42.93,91.08a.45.45,0,0,1-.72,0c-1.84-2.5-3.08-5.1-4.59-7.61-1-1.68-1.93-3.41-3-5A3.08,3.08,0,0,1,34.23,76q1.1-6.41,2.15-12.81c.33-2,.3-2,2.36-2,2.74,0,5.49.05,8.23,0,1,0,1.51.27,1.66,1.27.32,2.21.71,4.41,1.09,6.61s.73,4.39,1.12,6.59a4,4,0,0,1-.42,3c-2.32,3.88-3.91,6.64-6.22,10.52C44,89.39,43.16,90.79,42.93,91.08Z" transform="translate(0 0.04)" fill="#fb8cc2"/><path d="M26.89,14.79c-.23-6.78,5.18-13,12-14.45a15.6,15.6,0,0,1,18.19,10,13.43,13.43,0,0,1-1.13,11.41C53,27.05,48.76,31.33,44.51,35.61c-.71.71-1.41,1.87-2.19,1.94s-1.46-1.16-2.16-1.85A76.31,76.31,0,0,1,29.9,23.81C28.1,21,26.67,18.12,26.89,14.79ZM42.24,6.46c-6.73,0-10.84,6.49-7.78,12.31,1.86,3.52,4.55,6.41,7.25,9.32.54.58.83.32,1.22-.06a52.12,52.12,0,0,0,6.31-7.62,10.37,10.37,0,0,0,1.94-4.82A8.56,8.56,0,0,0,42.24,6.46Z" transform="translate(0 0.04)" fill="#0c0833"/><path d="M84.48,32.35a70.5,70.5,0,0,1-3.69,22c-1,2.85-2,5.66-3.12,8.45-.39.94-.74,1-1.58.47a34.84,34.84,0,0,0-6-3.2c-.78-.31-.58-.71-.32-1.29a74.93,74.93,0,0,0,4.71-15.06,40.41,40.41,0,0,0,1-8.86c0-.69-.19-1-.86-1.17-2.33-.46-4.65-1-7-1.38-3.11-.5-6.24-.9-9.36-1.33-.57-.07-.81-.16-.4-.76a35.37,35.37,0,0,0,4-6.82c.2-.49.5-.53,1.09-.47a141.46,141.46,0,0,1,20,3.95c1,.26,1.55.72,1.45,1.83S84.48,31.13,84.48,32.35Z" transform="translate(0 0.04)" fill="#0c0833"/><path d="M9.07,35.31c.08,5.54,1.38,10.48,2.79,15.39.64,2.26,1.57,4.44,2.37,6.66.2.58.31.9-.58,1.15C11.43,59.15,9.27,60,7.1,60.8,6.51,61,6.29,61,6,60.32A64.34,64.34,0,0,1,2.07,48.21,70.74,70.74,0,0,1,0,30.1c.12-3,.24-3.1,3.18-3.7,3.44-.71,6.82-1.66,10.3-2.23,2.76-.46,5.52-.94,8.28-1.42a.65.65,0,0,1,.77.46,32.71,32.71,0,0,0,4.18,7c.3.39.21.65-.38.72-3,.34-6,.9-8.95,1.22-2.54.28-4.92,1.07-7.41,1.45C8.59,33.85,9.1,34.9,9.07,35.31Z" transform="translate(0 0.04)" fill="#0c0833"/><path d="M42.22,54.19a25.32,25.32,0,0,0-2.89,0c-1.13.14-1.31-.37-1.14-1.26a2.83,2.83,0,0,1,.07-.42c1.19-2.93.12-5.46-1.26-8.05s-1.45-2.06,1-3.64c3.65-2.32,7-1.41,10.16,1.09.48.38.38.74.13,1.22-.79,1.46-1.53,2.94-2.26,4.42-.66,1.31,0,2.64,0,4,0,.12.16.24.19.37.55,2.18.44,2.32-1.89,2.3-.72,0-1.44,0-2.16,0Z" transform="translate(0 0.04)" fill="#0c0833"/><path d="M46,16.4A3.67,3.67,0,0,1,42.26,20a3.75,3.75,0,0,1-3.67-3.67,3.7,3.7,0,1,1,7.4.1Z" transform="translate(0 0.04)" fill="#0c0833"/><path d="M114,32.13h17.79a3.25,3.25,0,0,1,2.31.87,3,3,0,0,1,.93,2.26,2.73,2.73,0,0,1-.93,2.15,3.35,3.35,0,0,1-2.31.82H116.88l.48-.9V47.68l-.42-.42h12.42a3.25,3.25,0,0,1,2.31.87,3,3,0,0,1,.93,2.26,2.73,2.73,0,0,1-.93,2.15,3.35,3.35,0,0,1-2.31.82H117.1l.26-.42V63.66l-.42-.48h14.81a3.14,3.14,0,0,1,2.31.93,3,3,0,0,1,.93,2.15,2.82,2.82,0,0,1-.93,2.18,3.28,3.28,0,0,1-2.31.85H114a3.18,3.18,0,0,1-3.24-3.24V35.37A3.18,3.18,0,0,1,114,32.13Z" transform="translate(0 0.04)" fill="#0c0833"/><path d="M155.49,40.36q4.24,0,6.26,2a10.07,10.07,0,0,1,2.66,5.28l-.91-.47.43-.85a12,12,0,0,1,2-2.63,11.9,11.9,0,0,1,3.22-2.39,10.42,10.42,0,0,1,10,.66,8.4,8.4,0,0,1,2.74,4.38,23.45,23.45,0,0,1,.74,6.08V66.05a3.19,3.19,0,0,1-.9,2.31,3.08,3.08,0,0,1-2.29.93,3,3,0,0,1-2.28-.93,3.19,3.19,0,0,1-.9-2.31V52.46a10.69,10.69,0,0,0-.43-3.16,4.23,4.23,0,0,0-1.54-2.25,5.12,5.12,0,0,0-3.18-.85,6.59,6.59,0,0,0-3.45.85,5.43,5.43,0,0,0-2.16,2.25,7,7,0,0,0-.71,3.16V66.05a3.19,3.19,0,0,1-.9,2.31,3.08,3.08,0,0,1-2.29.93,3,3,0,0,1-2.28-.93,3.19,3.19,0,0,1-.9-2.31V52.46A11,11,0,0,0,158,49.3a4.28,4.28,0,0,0-1.54-2.25,5.12,5.12,0,0,0-3.18-.85,6.65,6.65,0,0,0-3.46.85,5.47,5.47,0,0,0-2.15,2.25,7,7,0,0,0-.71,3.16V66.05a3.16,3.16,0,0,1-.91,2.31,3.26,3.26,0,0,1-4.56,0,3.19,3.19,0,0,1-.9-2.31V44.13a3.19,3.19,0,0,1,.9-2.31,3.26,3.26,0,0,1,4.56,0,3.16,3.16,0,0,1,.91,2.31v2.28l-.8-.16a11.85,11.85,0,0,1,1.33-1.94,11.46,11.46,0,0,1,4.78-3.4A9.18,9.18,0,0,1,155.49,40.36Z" transform="translate(0 0.04)" fill="#0c0833"/><path d="M204.23,40.36a12.12,12.12,0,0,1,6.66,1.88,13.34,13.34,0,0,1,4.68,5.18,16.21,16.21,0,0,1,1.72,7.64,16.39,16.39,0,0,1-1.72,7.67A13.54,13.54,0,0,1,211,67.94a11.72,11.72,0,0,1-6.51,1.88,11.36,11.36,0,0,1-4-.69,12.72,12.72,0,0,1-3.27-1.75A10.28,10.28,0,0,1,195,65.23a3.39,3.39,0,0,1-.77-1.83l1.64-.69v14A3.19,3.19,0,0,1,195,79a3,3,0,0,1-2.28.93,3.1,3.1,0,0,1-3.19-3.24V44.13a3.19,3.19,0,0,1,.9-2.31,3.08,3.08,0,0,1,2.29-.93,3,3,0,0,1,2.28.93,3.19,3.19,0,0,1,.9,2.31v2.6l-.9-.48a3,3,0,0,1,.74-1.67,10.86,10.86,0,0,1,2-2A11.75,11.75,0,0,1,200.7,41,9.9,9.9,0,0,1,204.23,40.36Zm-.8,5.84a7.29,7.29,0,0,0-4.09,1.16,8,8,0,0,0-2.73,3.16,10.07,10.07,0,0,0-1,4.54,10.25,10.25,0,0,0,1,4.54,7.89,7.89,0,0,0,2.73,3.21A7.22,7.22,0,0,0,203.43,64a7.11,7.11,0,0,0,4.07-1.17,7.9,7.9,0,0,0,2.7-3.21,10.25,10.25,0,0,0,1-4.54,10.07,10.07,0,0,0-1-4.54,8,8,0,0,0-2.7-3.16A7.18,7.18,0,0,0,203.43,46.2Z" transform="translate(0 0.04)" fill="#0c0833"/><path d="M237.79,40.36A9,9,0,0,1,243.6,42a8.4,8.4,0,0,1,2.74,4.38,23.45,23.45,0,0,1,.74,6.08V66.05a3.19,3.19,0,0,1-.9,2.31,3.08,3.08,0,0,1-2.29.93,3,3,0,0,1-2.28-.93,3.19,3.19,0,0,1-.9-2.31V52.46a10.69,10.69,0,0,0-.43-3.16,4.23,4.23,0,0,0-1.54-2.25,5.12,5.12,0,0,0-3.18-.85,6.59,6.59,0,0,0-3.45.85A5.35,5.35,0,0,0,230,49.3a6.84,6.84,0,0,0-.72,3.16V66.05a3.19,3.19,0,0,1-.9,2.31,3.08,3.08,0,0,1-2.29.93,3,3,0,0,1-2.28-.93,3.19,3.19,0,0,1-.9-2.31V33.24a3.19,3.19,0,0,1,.9-2.31,3.07,3.07,0,0,1,2.28-.92,3.11,3.11,0,0,1,2.29.92,3.19,3.19,0,0,1,.9,2.31V46.41l-.8-.16a11.85,11.85,0,0,1,1.33-1.94,12.09,12.09,0,0,1,2.07-1.94,11.37,11.37,0,0,1,2.71-1.46A9.18,9.18,0,0,1,237.79,40.36Z" transform="translate(0 0.04)" fill="#0c0833"/><path d="M256.74,37.44a4.23,4.23,0,0,1-2.55-.59,2.51,2.51,0,0,1-.74-2.07v-1a2.35,2.35,0,0,1,.82-2.09,4.58,4.58,0,0,1,2.53-.56,4.43,4.43,0,0,1,2.6.58,2.51,2.51,0,0,1,.74,2.07v1a2.37,2.37,0,0,1-.8,2.1A4.64,4.64,0,0,1,256.74,37.44ZM260,66.05a3.19,3.19,0,0,1-.9,2.31,3.27,3.27,0,0,1-4.57,0,3.19,3.19,0,0,1-.9-2.31V44.13a3.19,3.19,0,0,1,.9-2.31,3.27,3.27,0,0,1,4.57,0,3.19,3.19,0,0,1,.9,2.31Z" transform="translate(0 0.04)" fill="#0c0833"/><path d="M269.7,69.29a3,3,0,0,1-2.28-.93,3.16,3.16,0,0,1-.91-2.31V44.13a3.16,3.16,0,0,1,.91-2.31,3.26,3.26,0,0,1,4.56,0,3.19,3.19,0,0,1,.9,2.31v5l-.37-3.56A8.38,8.38,0,0,1,274,43.3a8.76,8.76,0,0,1,2.09-1.64,9.5,9.5,0,0,1,2.5-1,10.91,10.91,0,0,1,2.65-.32,4.08,4.08,0,0,1,2.69.9A2.69,2.69,0,0,1,285,43.38a3.14,3.14,0,0,1-.9,2.52,2.93,2.93,0,0,1-2,.77,4.38,4.38,0,0,1-1.84-.37,4.66,4.66,0,0,0-3.82.08,5.25,5.25,0,0,0-1.8,1.41,7.27,7.27,0,0,0-1.33,2.36,9.78,9.78,0,0,0-.51,3.32V66.05a3.19,3.19,0,0,1-.9,2.31A3,3,0,0,1,269.7,69.29Z" transform="translate(0 0.04)" fill="#0c0833"/><path d="M301.77,69.82a15.65,15.65,0,0,1-7.83-1.88,13.1,13.1,0,0,1-5.1-5.13,14.91,14.91,0,0,1-1.78-7.32A16.12,16.12,0,0,1,289,47.34a13.72,13.72,0,0,1,5.07-5.18,13.12,13.12,0,0,1,6.64-1.8,12.13,12.13,0,0,1,5.12,1.11,14.19,14.19,0,0,1,4.28,3.05A14.8,14.8,0,0,1,313.05,49a13.55,13.55,0,0,1,1.09,5.41,2.73,2.73,0,0,1-1,2.08,3.36,3.36,0,0,1-2.23.79H290.62L289,52h19.48L307.35,53V51.61a5,5,0,0,0-1.09-2.76,7.2,7.2,0,0,0-2.45-1.94,7,7,0,0,0-3.1-.71,10.22,10.22,0,0,0-3,.42,5.64,5.64,0,0,0-2.38,1.43,7,7,0,0,0-1.6,2.71,13.46,13.46,0,0,0-.58,4.3,9.36,9.36,0,0,0,1.19,4.86A8.14,8.14,0,0,0,301.45,64a12.37,12.37,0,0,0,3.13-.32,7,7,0,0,0,1.89-.77c.48-.3.91-.56,1.3-.77a4.05,4.05,0,0,1,1.81-.48,2.68,2.68,0,0,1,2.7,2.66,3.32,3.32,0,0,1-1.48,2.6,12.27,12.27,0,0,1-3.88,2A15.27,15.27,0,0,1,301.77,69.82Z" transform="translate(0 0.04)" fill="#0c0833"/><path d="M318.07,64.88a3,3,0,0,1-.48-1.91A2.59,2.59,0,0,1,319,61a2.94,2.94,0,0,1,1.81-.45,3,3,0,0,1,1.86,1,12.26,12.26,0,0,0,3.24,2.38,9.39,9.39,0,0,0,4.24.85,12.47,12.47,0,0,0,1.76-.24,3.36,3.36,0,0,0,1.67-.84,2.68,2.68,0,0,0,.72-2,2.34,2.34,0,0,0-.8-1.86,6.51,6.51,0,0,0-2.1-1.16c-.87-.32-1.83-.62-2.89-.91s-2.22-.67-3.37-1.06A14,14,0,0,1,322,55.09a7.2,7.2,0,0,1-2.34-2.47,7.6,7.6,0,0,1-.9-3.88,7,7,0,0,1,1.48-4.51A9.76,9.76,0,0,1,324,41.37a12.41,12.41,0,0,1,5-1,15.7,15.7,0,0,1,3.45.4A13.52,13.52,0,0,1,335.91,42a8.36,8.36,0,0,1,2.76,2.31,3.76,3.76,0,0,1,.69,1.91,2.27,2.27,0,0,1-1,2,2.54,2.54,0,0,1-1.85.55,2.83,2.83,0,0,1-1.76-.71,6.22,6.22,0,0,0-2.41-1.86,8.31,8.31,0,0,0-3.48-.69,8.46,8.46,0,0,0-1.73.19,3.43,3.43,0,0,0-1.62.79,2.46,2.46,0,0,0-.69,1.94,2.5,2.5,0,0,0,.8,1.94,6.14,6.14,0,0,0,2.15,1.16c.9.31,1.87.6,2.89.88s2.15.62,3.24,1a12.71,12.71,0,0,1,3,1.54,7.36,7.36,0,0,1,2.23,2.47,7.76,7.76,0,0,1,.85,3.85,7,7,0,0,1-1.59,4.61,10.09,10.09,0,0,1-4,2.9,12.89,12.89,0,0,1-4.89,1,18.9,18.9,0,0,1-6.27-1.09A10.84,10.84,0,0,1,318.07,64.88Z" transform="translate(0 0.04)" fill="#0c0833"/></svg>